# xmcd
#
# Track frame offsets:
#	150
#	14696
#	28792
#	41656
#	54814
#	68122
#	86167
#	105777
#	121069
#	151825
#	163272
#	177447
#	191850
#	205136
#	219048
#	234916
#	249894
#	263448
#	291657
#	305717
#
# Disc length: 4249 seconds
#
# Revision: 0
# Processed by: cddbd v1.5.1PL2 Copyright (c) Steve Scherf et al.
# Submitted via: dBpowerAMP V4.0
#
DISCID=0e109714
DTITLE=Louis Armstrong - The Solid Gold Collection - CD1
DYEAR=2005
DGENRE=Blues
TTITLE0=When it`s sleepy time down south
TTITLE1=Perdido street blues
TTITLE2=Mamie`s blues
TTITLE3=You won`t be satisfied
TTITLE4=Mahogany haal stomp
TTITLE5=Ain`t misbehavin`
TTITLE6=Back o`town blues
TTITLE7=Rockin`chair
TTITLE8=On the sunny side of the street
TTITLE9=Muskrat ramble
TTITLE10=Willie the weeper
TTITLE11=Wild man blues
TTITLE12=Potato head blues
TTITLE13=Struttin`with some barbecue
TTITLE14=Savoy blues
TTITLE15=West end blues
TTITLE16=Beau koo jack
TTITLE17=Do you know what it means to miss mew orleans
TTITLE18=That lucky old sun
TTITLE19=Heeble jeebies
EXTD=
EXTT0=
EXTT1=
EXTT2=
EXTT3=
EXTT4=
EXTT5=
EXTT6=
EXTT7=
EXTT8=
EXTT9=
EXTT10=
EXTT11=
EXTT12=
EXTT13=
EXTT14=
EXTT15=
EXTT16=
EXTT17=
EXTT18=
EXTT19=
PLAYORDER=
